<svg xmlns="http://www.w3.org/2000/svg" xmlns:xlink="http://www.w3.org/1999/xlink" width="500" zoomAndPan="magnify" viewBox="0 0 375 374.999991" height="500" preserveAspectRatio="xMidYMid meet" version="1.0"><defs><g/><clipPath id="585d2e4b43"><path d="M 3.515625 3 L 371.765625 3 L 371.765625 375 L 3.515625 375 Z M 3.515625 3 " clip-rule="nonzero"/></clipPath></defs><path fill="#151733" d="M 34.929688 104.089844 C 40.65625 104.089844 42.085938 112.53125 42.085938 114.105469 C 42.085938 122.664062 41.585938 130.023438 40.328125 143.863281 C 44.464844 121.035156 52.691406 105.347656 56.398438 99.792969 C 64.988281 86.914062 93.613281 61.152344 116.511719 55.425781 C 139.410156 49.703125 169.464844 48.269531 186.640625 61.152344 C 198.792969 70.253906 195.902344 77.941406 185.566406 78.613281 C 201.253906 86.683594 220.691406 104.089844 220.90625 136.664062 L 220.746094 138.765625 C 224.410156 140.097656 228.992188 140.070312 231.683594 137.25 C 234.316406 134.488281 234.199219 130.136719 233.472656 126.402344 C 232.796875 122.980469 231.769531 119.644531 230.378906 116.46875 C 228.417969 111.945312 227.246094 102.742188 231.007812 99.792969 C 234.773438 96.847656 241.257812 102.640625 243.230469 104.429688 C 250.917969 111.414062 255.023438 121.664062 262.667969 128.691406 C 265.34375 131.136719 268.550781 133.214844 272.15625 133.613281 C 275.765625 134.027344 279.757812 132.398438 281.273438 129.105469 C 281.933594 127.703125 282.089844 126.144531 282.074219 124.597656 C 282.03125 118.242188 279.054688 112.21875 275.164062 107.179688 C 271.269531 102.15625 259.148438 96.117188 259.632812 89.777344 C 260.121094 83.292969 270.695312 90.191406 273.917969 92.523438 C 277.480469 95.101562 280.242188 98.679688 283.808594 101.253906 C 287.386719 103.832031 292.394531 105.246094 296.144531 102.941406 C 298.847656 101.269531 300.253906 97.960938 300.296875 94.769531 C 300.339844 91.59375 299.222656 88.5 297.863281 85.609375 C 289.417969 67.820312 270.039062 55.785156 250.332031 56.097656 L 249.945312 55.882812 C 250.085938 55.582031 250.214844 55.28125 250.332031 54.96875 C 251.105469 52.765625 251.003906 50.332031 250.503906 48.042969 C 249 40.984375 243.917969 35.074219 237.820312 31.210938 C 231.738281 27.34375 224.667969 25.3125 217.613281 23.808594 C 210.558594 22.292969 203.386719 21.261719 196.171875 20.71875 C 200.695312 20.375 205.21875 20.03125 209.742188 19.703125 C 211.042969 19.601562 212.503906 19.417969 213.277344 18.359375 C 214.492188 16.710938 213.046875 14.421875 211.457031 13.132812 C 207.195312 9.640625 201.582031 8.46875 196.203125 7.351562 C 174.433594 2.828125 145.792969 7.582031 124.496094 15.207031 L 124.496094 15.238281 C 61.550781 39.226562 15.109375 96.644531 6.894531 165.789062 C 9.785156 145.421875 20.53125 121.992188 24.914062 112.675781 C 26.886719 108.46875 29.207031 104.089844 34.929688 104.089844 Z M 34.929688 104.089844 " fill-opacity="1" fill-rule="nonzero"/><path fill="#151733" d="M 359.304688 243.617188 C 350.746094 249.273438 340.714844 252.679688 330.492188 253.40625 C 323.179688 253.9375 315.59375 253.050781 309.125 249.601562 C 302.65625 246.167969 297.445312 239.898438 296.460938 232.625 C 289.917969 233.714844 285.082031 239.023438 279.972656 243.246094 C 277.28125 245.480469 274.417969 247.441406 271.425781 249.199219 L 271.3125 249 C 264.171875 247.8125 257.171875 245.652344 250.617188 242.558594 C 247.667969 241.171875 244.761719 239.554688 242.515625 237.191406 C 240.285156 234.816406 238.796875 231.566406 239.179688 228.332031 C 239.339844 227 239.667969 225.3125 238.523438 224.613281 C 238.050781 224.3125 237.464844 224.3125 236.90625 224.324219 C 231.308594 224.496094 225.828125 225.8125 220.359375 226.988281 C 210.527344 229.132812 200.625 230.878906 190.648438 232.253906 C 188.074219 232.597656 185.480469 232.925781 182.878906 233.171875 C 163.699219 234.886719 144.078125 231.253906 126.789062 222.78125 L 125.886719 223.082031 C 115.25 190.449219 120.890625 157.628906 126.53125 148.457031 C 131.023438 141.140625 137.792969 132.640625 146.652344 125.785156 L 146.421875 125.484375 C 144.921875 123.296875 142.960938 121.390625 140.683594 120.046875 C 138.710938 118.871094 136.347656 118.101562 134.101562 118.570312 C 132.683594 118.871094 131.425781 119.644531 130.238281 120.476562 C 120.1875 127.472656 113.863281 138.882812 110.730469 150.71875 C 107.59375 162.554688 107.367188 174.949219 107.367188 187.199219 C 107.367188 192.121094 108.296875 202.699219 103.816406 202.769531 C 99.335938 202.84375 95.472656 190.160156 93.910156 182.761719 C 92.351562 175.363281 92.539062 167.25 90.75 159.90625 C 89.261719 153.765625 83.59375 157.042969 82.160156 159.90625 C 75.679688 172.871094 73.160156 184.265625 72.730469 198.75 C 72.144531 218.585938 79.300781 240.054688 87.886719 257.230469 L 87.6875 257.328125 C 98.492188 277.46875 112.003906 295.230469 125.855469 309.753906 C 141.871094 326.558594 158.359375 339.011719 171.65625 345.808594 C 171.855469 343.804688 173.730469 342.316406 175.621094 341.558594 C 179.515625 339.996094 183.894531 340.339844 188.03125 340.957031 C 197.046875 342.289062 206.261719 344.777344 215.109375 342.601562 C 216.652344 342.214844 218.199219 341.6875 219.515625 340.769531 C 219.761719 340.597656 220.015625 340.382812 220.117188 340.097656 C 220.273438 339.597656 219.917969 339.082031 219.558594 338.695312 C 215.59375 334.472656 209.113281 333.542969 204.847656 329.621094 C 203.960938 328.789062 203.171875 327.847656 202.527344 326.816406 C 201.625 325.382812 201.011719 323.722656 201.109375 322.050781 C 201.269531 319.503906 203 317.414062 204.832031 315.566406 C 198.707031 316.082031 192.796875 318.972656 186.753906 320.574219 C 184.050781 321.304688 181.304688 321.777344 178.539062 322.019531 L 178.527344 322.019531 C 169.050781 317.527344 159.621094 312.832031 151.289062 306.519531 C 140.425781 298.304688 131.738281 287.613281 123.167969 277.039062 C 120.847656 274.175781 118.515625 271.296875 116.46875 268.234375 C 115.765625 267.203125 115.109375 266.160156 114.492188 265.085938 C 109.625 256.585938 107.539062 246.523438 108.652344 236.792969 C 119.386719 258.21875 136.890625 276.179688 158.015625 287.484375 C 161.738281 289.488281 165.644531 291.320312 168.652344 294.296875 L 168.652344 294.339844 C 179.929688 295.6875 191.464844 294.972656 202.597656 292.507812 C 179.742188 286.355469 162.839844 276.09375 150.503906 263.753906 L 151.746094 262.523438 C 153.867188 264.671875 156.898438 265.816406 159.933594 266.117188 C 163.382812 266.460938 166.863281 265.84375 170.269531 265.1875 C 172.386719 264.785156 174.546875 264.355469 176.695312 264.601562 C 181.730469 265.160156 185.609375 269.121094 189.261719 272.65625 C 192.925781 276.179688 197.488281 279.683594 202.511719 278.96875 C 199.222656 275.363281 197.503906 270.367188 197.863281 265.5 C 209.210938 267.863281 218.199219 276.222656 228.40625 281.71875 C 240.699219 288.34375 255.195312 290.792969 269.007812 288.644531 L 269.066406 288.402344 C 266.417969 287.828125 263.785156 287.097656 261.195312 286.199219 C 257.257812 284.835938 253.449219 283.105469 249.65625 281.386719 C 243.992188 278.8125 238.265625 276.207031 232.785156 273.246094 C 238.078125 270.167969 244.75 269.464844 250.558594 271.46875 C 253.75 272.558594 256.628906 274.390625 259.707031 275.792969 C 262.769531 277.195312 266.21875 278.167969 269.507812 277.394531 C 272.800781 276.636719 275.75 273.660156 275.519531 270.296875 C 275.421875 268.835938 274.761719 267.363281 275.21875 265.972656 C 275.722656 264.472656 277.410156 263.640625 278.984375 263.667969 C 280.558594 263.699219 282.03125 264.414062 283.421875 265.160156 C 286.726562 266.960938 289.863281 269.078125 292.765625 271.484375 C 294.15625 272.644531 295.542969 273.890625 297.273438 274.460938 C 298.992188 275.035156 301.167969 274.71875 302.167969 273.203125 C 303.617188 271.039062 301.925781 268.25 300.539062 266.058594 C 299.164062 263.855469 298.335938 260.390625 300.59375 259.117188 C 311.960938 264.027344 324.269531 266.703125 336.621094 267.019531 C 345.464844 259.75 353.078125 251.804688 359.546875 243.820312 Z M 233.34375 262.609375 C 229.121094 263.570312 224.839844 264.515625 220.53125 264.785156 L 220.175781 265.257812 C 219.171875 264.5 218.183594 263.726562 217.226562 262.910156 C 213.289062 259.589844 209.640625 255.769531 204.988281 253.578125 C 194.328125 248.597656 181.976562 253.421875 170.3125 254.941406 C 160.492188 256.226562 150.359375 255.023438 141.085938 251.53125 L 140.46875 251.992188 C 136.375 246.367188 133.027344 240.46875 130.308594 234.488281 L 130.792969 234.257812 C 145.378906 241.757812 159.277344 243.960938 175.679688 244.277344 C 192.078125 244.578125 207.066406 238.824219 223.453125 239.554688 C 224.640625 239.597656 229.078125 241.484375 229.019531 242.671875 C 228.5625 244.390625 226.730469 245.566406 226.542969 247.324219 C 226.285156 249.828125 229.433594 251.320312 231.941406 251.148438 C 234.457031 250.976562 237.019531 249.957031 239.410156 250.730469 C 241.886719 251.519531 243.503906 254.382812 242.902344 256.914062 C 242.460938 258.789062 240.871094 260.277344 239.023438 260.777344 L 239.140625 261.238281 C 237.207031 261.710938 235.273438 262.167969 233.34375 262.609375 Z M 233.34375 262.609375 " fill-opacity="1" fill-rule="nonzero"/><path fill="#151733" d="M 278.238281 307.265625 C 285.753906 308.839844 293.425781 309.640625 301.109375 309.570312 C 312.347656 309.46875 323.59375 307.480469 334.113281 303.585938 C 334.113281 303.585938 334.128906 303.585938 334.128906 303.574219 C 343.476562 291.992188 351.433594 279.257812 357.773438 265.617188 L 357.472656 265.472656 C 342.816406 280.902344 318.214844 299.78125 278.238281 307.265625 Z M 278.238281 307.265625 " fill-opacity="1" fill-rule="nonzero"/><g clip-path="url(#585d2e4b43)"><path fill="#151733" d="M 369.523438 232.296875 C 369.121094 232.195312 368.722656 232.210938 368.363281 232.324219 C 368.320312 232.296875 368.292969 232.253906 368.25 232.226562 C 367.289062 231.539062 365.945312 231.769531 365.257812 232.742188 C 363.070312 235.816406 360.820312 238.796875 358.558594 241.601562 C 358.417969 241.65625 358.273438 241.730469 358.132812 241.816406 C 349.859375 247.28125 340.242188 250.546875 330.351562 251.261719 C 322.449219 251.832031 315.652344 250.632812 310.140625 247.699219 C 303.859375 244.363281 299.4375 238.464844 298.59375 232.324219 C 298.519531 231.753906 298.207031 231.238281 297.734375 230.894531 C 297.261719 230.550781 296.675781 230.40625 296.101562 230.507812 C 290.191406 231.496094 285.738281 235.390625 281.417969 239.167969 C 280.472656 239.996094 279.542969 240.8125 278.582031 241.601562 C 276.335938 243.460938 273.902344 245.164062 271.210938 246.808594 C 264.34375 245.621094 257.714844 243.546875 251.519531 240.628906 C 249.015625 239.453125 246.179688 237.949219 244.0625 235.730469 C 242.042969 233.585938 241.011719 230.921875 241.300781 228.589844 L 241.34375 228.261719 C 241.527344 226.832031 241.859375 224.152344 239.667969 222.808594 C 238.625 222.136719 237.507812 222.164062 236.835938 222.191406 C 231.640625 222.351562 226.558594 223.453125 221.648438 224.527344 L 219.902344 224.898438 C 210.300781 227 200.351562 228.761719 190.363281 230.136719 C 187.929688 230.464844 185.308594 230.792969 182.675781 231.039062 C 163.769531 232.726562 144.761719 229.207031 127.71875 220.863281 C 127.601562 220.804688 127.488281 220.761719 127.375 220.734375 C 117.855469 189.875 122.765625 158.632812 128.347656 149.585938 C 133.570312 141.070312 140.542969 133.226562 147.957031 127.488281 C 163.941406 115.136719 181.574219 112.101562 200.351562 118.429688 C 201.582031 120.933594 202.855469 123.511719 204.289062 125.984375 C 208.710938 133.613281 213.992188 138.59375 220.003906 140.785156 C 221.59375 141.355469 223.496094 141.742188 225.441406 141.742188 C 228.234375 141.742188 231.109375 140.941406 233.226562 138.722656 C 235.890625 135.933594 236.675781 131.640625 235.574219 125.984375 C 234.859375 122.378906 233.785156 118.886719 232.339844 115.609375 C 230.324219 110.957031 229.90625 103.371094 232.324219 101.484375 C 232.882812 101.054688 235.21875 100.066406 241.785156 106.019531 C 245.464844 109.371094 248.269531 113.476562 251.246094 117.84375 C 254.195312 122.148438 257.230469 126.617188 261.222656 130.28125 C 264.757812 133.515625 268.363281 135.359375 271.914062 135.746094 C 276.78125 136.304688 281.417969 133.945312 283.21875 130.023438 C 283.921875 128.519531 284.25 126.789062 284.222656 124.582031 C 284.179688 118.515625 281.632812 112.046875 276.867188 105.863281 C 275.347656 103.902344 272.902344 101.957031 270.3125 99.910156 C 266.402344 96.804688 261.550781 92.9375 261.78125 89.949219 C 261.824219 89.445312 261.9375 89.289062 261.925781 89.289062 C 262.769531 88.746094 267.277344 90.363281 272.65625 94.269531 C 274.316406 95.472656 275.792969 96.902344 277.367188 98.433594 C 278.96875 99.996094 280.644531 101.625 282.546875 103 C 286.285156 105.691406 292.378906 107.765625 297.273438 104.773438 C 300.410156 102.84375 302.382812 99.019531 302.441406 94.8125 C 302.5 90.933594 301.054688 87.386719 299.808594 84.710938 C 291.421875 67.035156 272.34375 54.726562 252.792969 54.039062 C 253.164062 52.089844 253.109375 49.945312 252.605469 47.625 C 251.117188 40.597656 246.136719 33.972656 238.980469 29.433594 C 232.195312 25.128906 224.238281 23.066406 218.070312 21.75 C 216.625 21.433594 215.164062 21.148438 213.707031 20.875 C 214.179688 20.574219 214.636719 20.1875 215.007812 19.675781 C 217.039062 16.925781 215.292969 13.519531 212.820312 11.515625 C 208.136719 7.679688 202.027344 6.40625 196.632812 5.289062 C 172.972656 0.382812 143.476562 6.164062 123.765625 13.234375 C 119.773438 14.664062 116.066406 16.195312 112.734375 17.742188 C 112.519531 17.84375 112.332031 17.984375 112.175781 18.128906 C 85.394531 30.453125 61.808594 49.027344 43.417969 72.359375 C 22.136719 99.363281 8.753906 131.640625 4.730469 165.6875 L 4.730469 165.945312 C 4.730469 165.929688 4.730469 165.917969 4.730469 165.945312 L 4.730469 166.03125 C 4.503906 167.71875 4.316406 169.480469 4.203125 171.242188 L 4.203125 171.3125 C 3.730469 176.824219 3.472656 182.363281 3.472656 187.84375 C 3.472656 290.835938 87.257812 374.617188 190.246094 374.617188 C 237.078125 374.617188 281.890625 357.214844 316.410156 325.628906 C 323.292969 319.316406 329.691406 312.503906 335.445312 305.390625 C 335.976562 305.105469 336.332031 304.632812 336.492188 304.085938 C 345.695312 292.566406 353.523438 279.957031 359.75 266.5625 C 364.457031 256.429688 368.277344 245.792969 371.082031 234.945312 C 371.382812 233.800781 370.695312 232.625 369.539062 232.324219 Z M 272.515625 251.046875 C 275.777344 249.128906 278.667969 247.109375 281.332031 244.890625 C 282.304688 244.089844 283.277344 243.230469 284.25 242.386719 C 287.6875 239.382812 290.976562 236.503906 294.785156 235.246094 C 296.472656 241.859375 301.410156 247.941406 308.109375 251.488281 C 314.335938 254.8125 321.921875 256.183594 330.636719 255.539062 C 337.59375 255.039062 344.417969 253.351562 350.804688 250.601562 C 345.9375 255.871094 340.828125 260.707031 335.53125 265.074219 C 335.390625 265.058594 335.261719 265.042969 335.117188 265.058594 C 324.039062 265.585938 313.0625 263.027344 301.570312 257.199219 C 300.925781 256.871094 300.167969 256.886719 299.550781 257.242188 C 298.378906 257.902344 297.574219 258.960938 297.230469 260.292969 C 296.632812 262.652344 297.605469 265.402344 298.734375 267.207031 C 299.621094 268.609375 301.109375 270.941406 300.394531 272.015625 C 300.039062 272.558594 298.921875 272.742188 297.960938 272.414062 C 296.761719 272.015625 295.671875 271.097656 294.5 270.125 L 294.140625 269.824219 C 291.148438 267.347656 287.886719 265.144531 284.4375 263.253906 C 282.90625 262.425781 281.089844 261.550781 279.027344 261.507812 C 278.984375 261.507812 278.941406 261.507812 278.914062 261.507812 C 276.277344 261.507812 273.945312 263.054688 273.1875 265.289062 C 272.714844 266.746094 272.972656 268.121094 273.1875 269.222656 C 273.257812 269.625 273.34375 270.023438 273.375 270.425781 C 273.53125 272.699219 271.253906 274.777344 269.007812 275.292969 C 266.691406 275.835938 263.925781 275.347656 260.578125 273.816406 C 259.492188 273.316406 258.433594 272.773438 257.316406 272.1875 C 255.382812 271.183594 253.394531 270.152344 251.246094 269.410156 C 245.480469 267.40625 238.9375 267.804688 233.300781 270.484375 C 233.128906 270.570312 232.984375 270.667969 232.855469 270.78125 C 230.179688 269.308594 227.71875 267.835938 225.484375 266.347656 C 228.460938 265.875 231.339844 265.230469 233.800781 264.671875 C 236.675781 264.011719 239.210938 263.398438 241.542969 262.796875 C 254.8125 259.433594 264.355469 255.796875 272.488281 251.019531 Z M 225.828125 251.0625 C 227.289062 252.5625 229.734375 253.449219 232.082031 253.277344 C 233.011719 253.222656 233.886719 253.066406 234.746094 252.90625 C 236.289062 252.636719 237.636719 252.40625 238.753906 252.765625 C 240.140625 253.207031 241.140625 254.980469 240.800781 256.414062 C 240.640625 257.070312 240.199219 257.703125 239.582031 258.144531 C 239.238281 258.390625 238.980469 258.71875 238.839844 259.089844 C 236.992188 259.546875 235.03125 260.019531 232.855469 260.519531 C 228.234375 261.566406 224.367188 262.394531 220.390625 262.652344 C 220.359375 262.652344 220.332031 262.652344 220.304688 262.652344 C 219.675781 262.152344 219.117188 261.710938 218.601562 261.265625 C 217.714844 260.507812 216.824219 259.734375 215.953125 258.945312 C 212.902344 256.242188 209.753906 253.449219 205.890625 251.632812 C 197.261719 247.613281 187.859375 249.472656 178.753906 251.277344 C 175.863281 251.847656 172.886719 252.433594 170.023438 252.808594 C 160.59375 254.050781 150.832031 252.90625 141.828125 249.515625 C 141.644531 249.445312 141.457031 249.414062 141.269531 249.402344 C 138.851562 245.953125 136.632812 242.300781 134.644531 238.480469 C 146.523438 243.761719 158.816406 246.09375 175.636719 246.421875 C 183.75 246.550781 191.578125 245.265625 199.148438 244.003906 C 207.367188 242.632812 215.121094 241.34375 223.339844 241.699219 C 223.953125 241.773438 225.542969 242.429688 226.472656 243.003906 C 226.359375 243.175781 226.214844 243.359375 226.085938 243.53125 C 225.414062 244.433594 224.570312 245.566406 224.410156 247.109375 C 224.269531 248.570312 224.769531 249.972656 225.828125 251.074219 Z M 170.582031 257.058594 C 173.574219 256.671875 176.636719 256.054688 179.585938 255.46875 C 188.402344 253.722656 196.71875 252.078125 204.058594 255.511719 C 207.351562 257.058594 210.140625 259.535156 213.089844 262.152344 C 213.992188 262.953125 214.90625 263.753906 215.824219 264.527344 C 216.695312 265.273438 217.628906 266.015625 218.871094 266.949219 C 222.75 269.882812 227.230469 272.699219 232.582031 275.550781 C 237.664062 278.253906 242.703125 280.574219 248.769531 283.320312 L 248.957031 283.40625 C 251.832031 284.710938 254.796875 286.039062 257.816406 287.214844 C 247.914062 287.011719 238.121094 284.496094 229.421875 279.800781 C 226.171875 278.054688 222.953125 275.9375 219.847656 273.902344 C 213.203125 269.550781 206.335938 265.042969 198.292969 263.371094 C 197.675781 263.242188 197.0625 263.382812 196.558594 263.753906 C 196.074219 264.128906 195.757812 264.699219 195.714844 265.316406 C 195.441406 269.066406 196.289062 272.914062 198.035156 276.265625 C 195.328125 275.234375 192.808594 273.074219 190.75 271.082031 L 190.277344 270.625 C 186.625 267.078125 182.476562 263.054688 176.9375 262.4375 C 174.761719 262.195312 172.414062 262.394531 169.738281 263.082031 C 160.164062 265.5 154.125 263.199219 151.746094 261.9375 C 149.628906 259.804688 147.625 257.558594 145.707031 255.238281 C 153.808594 257.488281 162.296875 258.132812 170.582031 257.042969 Z M 170.785156 267.261719 C 172.945312 266.71875 174.789062 266.546875 176.449219 266.734375 C 180.542969 267.191406 183.964844 270.511719 187.285156 273.730469 L 187.773438 274.203125 C 191.578125 277.867188 196.730469 281.960938 202.8125 281.089844 C 203.601562 280.972656 204.257812 280.429688 204.53125 279.683594 C 204.804688 278.941406 204.632812 278.097656 204.101562 277.511719 C 201.8125 274.992188 200.367188 271.671875 200.039062 268.25 C 206.191406 270.097656 211.703125 273.703125 217.5 277.511719 C 220.675781 279.597656 223.980469 281.761719 227.386719 283.59375 C 237.09375 288.816406 248.070312 291.535156 259.105469 291.535156 C 262.523438 291.535156 265.945312 291.277344 269.335938 290.75 C 269.4375 290.734375 269.523438 290.707031 269.625 290.675781 C 273.472656 291.480469 277.496094 292.023438 281.703125 292.292969 C 272.585938 294.511719 263.082031 295.828125 253.308594 296.1875 C 252.992188 296.1875 252.707031 296.289062 252.433594 296.417969 C 250.988281 295.742188 249.542969 295.058594 248.082031 294.3125 C 247.097656 293.8125 246.109375 293.296875 245.121094 292.765625 C 238.839844 289.460938 232.355469 286.054688 225.027344 285.769531 C 219.804688 285.566406 214.820312 287 210 288.371094 C 209.070312 288.644531 208.136719 288.902344 207.207031 289.160156 C 205.503906 289.632812 203.789062 290.035156 202.085938 290.40625 C 201.839844 290.175781 201.539062 289.992188 201.195312 289.890625 C 184.582031 285.167969 170.339844 277.910156 158.703125 268.292969 C 161.996094 268.621094 166.03125 268.464844 170.796875 267.261719 Z M 269.507812 286.296875 C 266.890625 285.726562 264.328125 285.007812 261.882812 284.164062 C 258.101562 282.863281 254.351562 281.160156 250.71875 279.511719 L 250.53125 279.429688 C 245.792969 277.28125 241.699219 275.40625 237.734375 273.402344 C 241.699219 272.15625 245.980469 272.15625 249.859375 273.503906 C 251.71875 274.132812 253.480469 275.046875 255.339844 276.019531 C 256.457031 276.609375 257.617188 277.210938 258.804688 277.738281 C 261.839844 279.128906 264.558594 279.8125 267.078125 279.8125 C 268.078125 279.8125 269.050781 279.699219 269.996094 279.484375 C 274.019531 278.554688 277.980469 274.820312 277.667969 270.152344 C 277.625 269.523438 277.511719 268.9375 277.410156 268.40625 C 277.265625 267.691406 277.136719 267.035156 277.265625 266.648438 C 277.425781 266.175781 278.140625 265.832031 278.957031 265.816406 C 280.058594 265.832031 281.273438 266.433594 282.40625 267.046875 C 285.597656 268.792969 288.628906 270.839844 291.40625 273.128906 L 291.75 273.417969 C 293.109375 274.546875 294.640625 275.851562 296.617188 276.492188 C 298.976562 277.28125 302.285156 276.953125 303.972656 274.390625 C 306.234375 271.011719 303.816406 267.191406 302.382812 264.914062 C 301.769531 263.914062 301.367188 262.710938 301.355469 261.867188 C 311.128906 266.574219 320.605469 269.023438 330.121094 269.351562 C 319.488281 277.324219 307.964844 283.59375 295.828125 288.03125 C 295.699219 288.03125 295.585938 288 295.457031 288.015625 C 285.796875 288.601562 277.324219 288.042969 269.539062 286.296875 Z M 183.0625 235.304688 C 185.769531 235.046875 188.445312 234.703125 190.921875 234.371094 C 201.023438 232.984375 211.085938 231.195312 220.789062 229.078125 L 222.550781 228.691406 C 227.273438 227.660156 232.152344 226.601562 236.949219 226.457031 L 237.191406 226.457031 C 237.191406 226.816406 237.121094 227.375 237.078125 227.703125 L 237.035156 228.0625 C 236.605469 231.683594 238.023438 235.546875 240.941406 238.652344 C 243.546875 241.386719 246.824219 243.132812 249.6875 244.476562 C 254.695312 246.839844 259.964844 248.683594 265.402344 249.972656 C 259.675781 252.792969 253.09375 255.210938 244.949219 257.457031 C 244.949219 257.429688 244.964844 257.402344 244.976562 257.386719 C 245.835938 253.78125 243.574219 249.785156 240.054688 248.671875 C 237.921875 247.984375 235.832031 248.355469 234 248.671875 C 233.214844 248.8125 232.484375 248.941406 231.78125 248.984375 C 230.707031 249.058594 229.476562 248.65625 228.90625 248.070312 C 228.648438 247.796875 228.660156 247.625 228.660156 247.539062 C 228.703125 247.183594 229.089844 246.636719 229.507812 246.082031 C 230.066406 245.335938 230.75 244.40625 231.066406 243.21875 C 231.109375 243.074219 231.125 242.917969 231.136719 242.773438 C 231.167969 242.230469 231.039062 241.414062 230.25 240.570312 C 228.777344 238.96875 225 237.464844 223.523438 237.40625 C 214.835938 237.007812 206.492188 238.410156 198.421875 239.769531 C 191.050781 241 183.40625 242.257812 175.691406 242.128906 C 157.300781 241.773438 144.578125 238.9375 131.753906 232.355469 C 131.726562 232.355469 131.710938 232.339844 131.683594 232.324219 C 130.808594 230.351562 130.007812 228.347656 129.261719 226.316406 C 146.109375 233.859375 164.628906 236.964844 183.0625 235.304688 Z M 124.683594 147.324219 C 118.988281 156.570312 112.648438 189.488281 123.808594 223.738281 C 125.085938 227.660156 126.617188 231.582031 128.332031 235.375 C 131.238281 241.757812 134.714844 247.769531 138.695312 253.25 C 141.757812 257.488281 145.191406 261.507812 148.898438 265.214844 C 160.679688 277.007812 175.605469 285.984375 193.355469 291.949219 C 185.324219 293.023438 177.367188 293.140625 169.609375 292.28125 C 166.917969 289.789062 163.714844 288.085938 160.605469 286.441406 C 160.078125 286.15625 159.546875 285.882812 159.019531 285.597656 C 138.292969 274.503906 121.078125 256.828125 110.558594 235.832031 C 110.128906 234.988281 109.199219 234.53125 108.265625 234.671875 C 107.335938 234.84375 106.621094 235.605469 106.507812 236.546875 C 105.347656 246.722656 107.507812 257.230469 112.617188 266.160156 C 113.234375 267.234375 113.90625 268.320312 114.664062 269.4375 C 116.753906 272.558594 119.128906 275.507812 121.476562 278.398438 C 130.007812 288.929688 138.839844 299.824219 149.972656 308.238281 C 156.054688 312.847656 162.695312 316.582031 169.308594 319.929688 C 161.609375 319.402344 153.050781 317.414062 143.003906 313.820312 C 137.605469 311.902344 132.269531 309.742188 127.117188 307.421875 C 126.886719 307.324219 126.660156 307.28125 126.429688 307.25 C 112.160156 292.109375 99.59375 274.832031 90.003906 257.128906 C 89.992188 256.84375 89.917969 256.558594 89.789062 256.285156 C 83.921875 244.5625 74.191406 221.492188 74.863281 198.820312 C 75.304688 184.066406 77.96875 173.074219 84.066406 160.878906 C 84.667969 159.675781 86.425781 158.488281 87.429688 158.589844 C 88.085938 158.660156 88.445312 159.632812 88.644531 160.421875 C 89.5625 164.171875 89.949219 168.265625 90.332031 172.230469 C 90.675781 175.863281 91.035156 179.613281 91.792969 183.207031 C 93.167969 189.746094 97.089844 204.917969 103.757812 204.917969 L 103.832031 204.917969 C 105.089844 204.902344 106.21875 204.402344 107.109375 203.488281 C 109.582031 200.925781 109.667969 195.601562 109.527344 189.402344 C 109.511719 188.585938 109.496094 187.84375 109.496094 187.199219 C 109.496094 174.804688 109.753906 162.738281 112.789062 151.261719 C 116.152344 138.582031 122.78125 128.277344 131.453125 122.234375 C 132.425781 121.5625 133.472656 120.90625 134.53125 120.675781 C 135.945312 120.375 137.75 120.804688 139.582031 121.890625 C 141.097656 122.78125 142.488281 123.996094 143.675781 125.441406 C 134.585938 132.882812 128.347656 141.371094 124.683594 147.324219 Z M 159.019531 290.460938 C 157.601562 290.132812 156.199219 289.777344 154.824219 289.375 C 140.628906 285.28125 127.574219 277.253906 118.085938 266.761719 C 118.070312 266.746094 118.042969 266.734375 118.027344 266.71875 C 117.414062 265.789062 116.855469 264.902344 116.339844 264.011719 C 112.992188 258.160156 111.015625 251.53125 110.585938 244.835938 C 121.621094 263.5 137.863281 279.128906 156.984375 289.375 C 157.53125 289.660156 158.058594 289.949219 158.601562 290.234375 C 158.746094 290.304688 158.875 290.390625 159.019531 290.460938 Z M 200.679688 327.960938 C 201.410156 329.132812 202.3125 330.222656 203.371094 331.210938 C 205.632812 333.285156 208.351562 334.574219 210.972656 335.804688 C 213.363281 336.921875 215.625 337.992188 217.355469 339.554688 C 216.609375 339.925781 215.695312 340.242188 214.578125 340.527344 C 207.910156 342.171875 201.011719 340.984375 193.710938 339.726562 C 191.90625 339.410156 190.117188 339.109375 188.332031 338.839844 C 183.90625 338.179688 179.199219 337.808594 174.804688 339.566406 C 172.929688 340.328125 171.46875 341.457031 170.554688 342.800781 C 159.160156 336.632812 146.308594 326.816406 134.144531 315.050781 C 136.605469 316.023438 139.082031 316.96875 141.570312 317.855469 C 156.15625 323.066406 167.863281 325.070312 178.367188 324.183594 C 181.472656 323.925781 184.480469 323.394531 187.300781 322.636719 C 189.503906 322.050781 191.679688 321.304688 193.796875 320.574219 C 195.859375 319.875 197.847656 319.203125 199.808594 318.671875 C 199.363281 319.632812 199.019531 320.703125 198.949219 321.90625 C 198.835938 323.867188 199.4375 325.941406 200.679688 327.945312 Z M 147.082031 122.808594 C 145.550781 120.949219 143.761719 119.359375 141.785156 118.1875 C 139.839844 117.027344 136.847656 115.796875 133.65625 116.453125 C 131.839844 116.839844 130.292969 117.800781 129.003906 118.699219 C 119.503906 125.328125 112.273438 136.492188 108.652344 150.160156 C 105.476562 162.136719 105.21875 174.503906 105.21875 187.183594 C 105.21875 187.859375 105.234375 188.644531 105.246094 189.488281 C 105.320312 192.582031 105.460938 199.007812 104.03125 200.496094 C 103.917969 200.609375 103.859375 200.625 103.773438 200.609375 C 102.140625 200.609375 98.40625 193.667969 96.015625 182.304688 C 95.316406 178.957031 94.957031 175.320312 94.628906 171.800781 C 94.242188 167.675781 93.824219 163.425781 92.839844 159.390625 C 91.851562 155.339844 89.347656 154.46875 87.945312 154.308594 C 84.796875 153.953125 81.503906 156.441406 80.242188 158.945312 C 73.847656 171.757812 71.039062 183.261719 70.582031 198.691406 C 70.496094 201.425781 70.582031 204.175781 70.769531 206.894531 C 69.894531 203.042969 69.152344 199.207031 68.535156 195.359375 C 63.328125 162.324219 71.898438 134.875 94.027344 113.777344 C 110.628906 97.949219 129.0625 91.808594 129.234375 91.75 C 144.804688 86.757812 157.875 85.925781 169.207031 89.1875 C 179.527344 92.164062 188.832031 99.035156 194.699219 108.007812 C 195.773438 109.65625 196.730469 111.359375 197.675781 113.148438 C 179.8125 108.351562 162.453125 111.660156 147.066406 122.824219 Z M 208.023438 123.824219 C 206.535156 121.261719 205.203125 118.542969 203.917969 115.894531 L 203.816406 115.695312 C 203.816406 115.695312 203.757812 115.609375 203.746094 115.566406 C 201.984375 111.988281 200.351562 108.753906 198.304688 105.621094 C 191.878906 95.800781 181.71875 88.289062 170.410156 85.023438 C 158.246094 81.503906 144.347656 82.363281 127.933594 87.628906 C 127.144531 87.886719 108.511719 94.070312 91.191406 110.515625 C 75.164062 125.742188 57.5 152.9375 64.300781 196 C 67.605469 216.925781 74.832031 237.90625 85.796875 258.332031 C 95.84375 277.050781 109.15625 295.34375 124.3125 311.230469 C 137.894531 325.484375 152.964844 337.691406 166.332031 345.351562 C 143.605469 339.4375 101.054688 320.960938 66.847656 263.285156 C 48.671875 232.65625 39.652344 201.210938 40.027344 169.824219 L 40.640625 163.425781 C 41.371094 155.753906 41.972656 149.472656 42.472656 144.148438 C 47.238281 117.957031 57.101562 102.640625 58.203125 100.96875 C 66.015625 89.246094 93.867188 63.285156 117.054688 57.488281 C 139.238281 51.949219 168.824219 50.429688 185.382812 62.855469 C 191.378906 67.347656 192.925781 71.070312 192.367188 73.042969 C 191.863281 74.832031 189.476562 76.09375 185.996094 76.421875 C 180.886719 73.847656 176.609375 72.414062 173.875 71.683594 C 172.730469 71.382812 171.554688 72.058594 171.242188 73.203125 C 170.941406 74.347656 171.613281 75.519531 172.757812 75.835938 C 175.449219 76.550781 179.757812 77.984375 184.964844 80.714844 C 197.332031 87.171875 218 102.8125 218.730469 135.417969 C 214.792969 133.171875 211.199219 129.292969 208.023438 123.824219 Z M 125.269531 17.242188 C 125.269531 17.242188 125.398438 17.167969 125.46875 17.140625 C 143.777344 10.628906 173.058594 4.730469 195.757812 9.457031 C 200.894531 10.527344 206.21875 11.628906 210.097656 14.808594 C 211.230469 15.722656 211.714844 16.855469 211.53125 17.097656 C 211.285156 17.441406 209.984375 17.542969 209.570312 17.570312 C 205.046875 17.898438 200.523438 18.242188 196 18.585938 C 194.886719 18.671875 194.011719 19.601562 194.011719 20.734375 C 194.011719 21.863281 194.871094 22.792969 196 22.878906 C 203.128906 23.425781 210.242188 24.441406 217.15625 25.929688 C 222.980469 27.175781 230.449219 29.089844 236.664062 33.042969 C 242.859375 36.976562 247.140625 42.601562 248.398438 48.511719 C 248.886719 50.746094 248.855469 52.691406 248.3125 54.253906 C 248.226562 54.511719 248.113281 54.738281 248.011719 54.953125 C 247.339844 56.328125 246.222656 57.34375 245.019531 57.644531 C 242.589844 58.261719 239.796875 56.414062 237.363281 54.609375 C 234.542969 52.535156 231.726562 50.460938 228.933594 48.382812 C 225.414062 45.78125 221.035156 42.53125 215.824219 41.6875 C 210.472656 40.84375 203.886719 43.347656 202.171875 48.972656 C 201.210938 52.105469 201.898438 55.726562 204.089844 59.160156 C 205.320312 61.09375 206.851562 62.738281 208.324219 64.328125 C 208.898438 64.929688 209.453125 65.546875 210 66.160156 C 210.429688 66.648438 211.015625 66.890625 211.617188 66.890625 C 212.117188 66.890625 212.617188 66.71875 213.03125 66.359375 C 213.921875 65.574219 214.007812 64.226562 213.234375 63.328125 C 212.660156 62.667969 212.058594 62.039062 211.472656 61.394531 C 210.070312 59.878906 208.738281 58.460938 207.707031 56.84375 C 206.21875 54.511719 205.707031 52.089844 206.277344 50.203125 C 207.308594 46.839844 211.6875 45.351562 215.152344 45.894531 C 219.316406 46.566406 223.066406 49.34375 226.386719 51.789062 C 229.191406 53.867188 232.011719 55.941406 234.832031 58.015625 C 237.148438 59.734375 241.472656 62.925781 246.109375 61.753906 C 248.054688 61.25 249.785156 59.976562 251.046875 58.1875 L 251.089844 58.1875 C 269.625 58.1875 287.988281 69.738281 295.929688 86.46875 C 296.988281 88.714844 298.207031 91.695312 298.164062 94.683594 C 298.121094 97.402344 296.902344 99.910156 295.027344 101.054688 C 291.949219 102.941406 287.742188 101.367188 285.066406 99.449219 C 283.40625 98.25 281.933594 96.816406 280.359375 95.285156 C 278.753906 93.726562 277.082031 92.09375 275.175781 90.71875 C 271.285156 87.902344 264.15625 83.449219 260.121094 85.324219 C 259.21875 85.738281 257.6875 86.839844 257.488281 89.546875 C 257.085938 94.8125 262.683594 99.265625 267.632812 103.199219 C 270.011719 105.089844 272.257812 106.878906 273.460938 108.425781 C 277.652344 113.847656 279.886719 119.429688 279.929688 124.554688 C 279.941406 126.085938 279.757812 127.230469 279.328125 128.148438 C 278.152344 130.679688 274.949219 131.726562 272.402344 131.425781 C 269.765625 131.125 266.976562 129.664062 264.128906 127.058594 C 260.507812 123.738281 257.746094 119.675781 254.796875 115.367188 C 251.820312 111 248.726562 106.476562 244.675781 102.785156 C 238.207031 96.917969 233.171875 95.328125 229.691406 98.046875 C 224.625 102.011719 226.359375 112.519531 228.417969 117.269531 C 229.734375 120.261719 230.722656 123.453125 231.367188 126.757812 C 232.195312 130.980469 231.78125 133.988281 230.136719 135.71875 C 228.363281 137.578125 225.441406 137.679688 222.996094 137.121094 C 223.039062 136.949219 223.066406 136.777344 223.066406 136.589844 C 222.851562 104.644531 204.832031 87.644531 191.449219 79.414062 C 194.054688 78.28125 195.828125 76.480469 196.488281 74.160156 C 197.21875 71.585938 197.089844 66.21875 187.945312 59.375 C 170.195312 46.066406 139.140625 47.511719 116.011719 53.292969 C 91.78125 59.347656 62.753906 86.371094 54.640625 98.550781 C 53.851562 99.738281 48.828125 107.539062 44.148438 120.917969 C 44.21875 118.628906 44.261719 116.382812 44.261719 114.050781 C 44.261719 110.929688 41.972656 101.882812 34.960938 101.882812 C 31.78125 101.882812 29.476562 102.984375 27.71875 104.546875 C 47.898438 65.03125 82.203125 33.601562 125.3125 17.183594 Z M 190.21875 370.296875 C 89.605469 370.296875 7.738281 288.429688 7.738281 187.816406 C 7.738281 180.730469 8.152344 173.546875 8.96875 166.445312 C 8.96875 166.445312 8.96875 166.433594 8.96875 166.417969 C 8.96875 166.347656 8.996094 166.261719 8.996094 166.1875 C 10.945312 152.347656 16.953125 134.644531 26.84375 113.589844 C 28.804688 109.425781 30.636719 106.234375 34.917969 106.234375 C 38.839844 106.234375 39.925781 113.304688 39.925781 114.105469 C 39.925781 122.867188 39.367188 130.609375 38.179688 143.589844 C 36.621094 152.132812 35.789062 160.878906 35.703125 169.59375 L 35.605469 170.597656 C 35.574219 170.898438 35.605469 171.183594 35.703125 171.457031 C 35.648438 203.085938 44.847656 234.714844 63.113281 265.488281 C 89.261719 309.570312 120.175781 330.851562 141.5 340.941406 C 164.730469 351.917969 181.558594 352.40625 182.261719 352.421875 L 182.304688 352.421875 C 183.363281 352.421875 184.25 351.660156 184.421875 350.617188 C 184.59375 349.558594 183.949219 348.542969 182.933594 348.226562 C 180.316406 347.425781 177.453125 346.265625 174.433594 344.820312 C 174.949219 344.304688 175.664062 343.863281 176.378906 343.574219 C 179.8125 342.203125 183.835938 342.53125 187.671875 343.101562 C 189.433594 343.359375 191.191406 343.660156 192.953125 343.976562 C 200.367188 345.25 208.039062 346.566406 215.582031 344.71875 C 216.941406 344.375 218.929688 343.789062 220.703125 342.558594 C 221.148438 342.246094 221.792969 341.714844 222.105469 340.785156 C 222.363281 339.96875 222.394531 338.695312 221.0625 337.261719 C 218.699219 334.746094 215.679688 333.328125 212.761719 331.941406 C 210.328125 330.792969 208.023438 329.707031 206.261719 328.089844 C 205.492188 327.375 204.832031 326.574219 204.289062 325.714844 C 203.746094 324.855469 203.113281 323.550781 203.199219 322.222656 C 203.273438 321.019531 203.886719 319.800781 205.21875 318.285156 C 205.363281 318.113281 205.476562 317.929688 205.5625 317.726562 C 206.605469 317.671875 207.625 317.65625 208.609375 317.769531 C 214.507812 318.414062 219.761719 322.234375 224.828125 325.929688 C 225.828125 326.660156 226.84375 327.386719 227.847656 328.105469 C 234.199219 332.554688 240.011719 334.800781 245.191406 334.800781 C 247.398438 334.800781 249.488281 334.402344 251.460938 333.585938 C 252.078125 333.328125 252.535156 332.8125 252.722656 332.167969 C 252.894531 331.523438 252.765625 330.835938 252.363281 330.308594 C 250.660156 328.074219 249.027344 325.527344 249.742188 323.550781 C 251.019531 320.015625 258.101562 321.320312 259.503906 321.621094 L 263.640625 322.492188 C 274.632812 324.839844 286.011719 327.257812 297.503906 327.617188 C 301.152344 327.71875 304.675781 327.574219 308.066406 327.230469 C 275.121094 355.097656 233.542969 370.367188 190.191406 370.367188 Z M 313.976562 321.964844 C 308.925781 322.964844 303.445312 323.410156 297.660156 323.253906 C 286.554688 322.910156 275.378906 320.53125 264.570312 318.226562 L 260.421875 317.339844 C 252.75 315.710938 247.398438 317.414062 245.738281 322.019531 C 244.648438 325.070312 245.835938 328.046875 247.195312 330.292969 C 242.503906 331.007812 236.863281 329.078125 230.367188 324.527344 C 229.378906 323.839844 228.390625 323.125 227.402344 322.394531 C 221.878906 318.371094 216.152344 314.207031 209.125 313.433594 C 207.222656 313.234375 205.277344 313.277344 203.199219 313.578125 C 199.507812 314.09375 195.902344 315.324219 192.421875 316.523438 C 190.375 317.226562 188.273438 317.957031 186.210938 318.5 C 183.894531 319.117188 181.429688 319.558594 178.898438 319.816406 C 170.054688 315.609375 160.75 310.972656 152.605469 304.804688 C 144.464844 298.648438 137.523438 291.007812 130.953125 283.132812 C 137.921875 287.628906 145.621094 291.164062 153.664062 293.496094 C 158.417969 294.886719 163.382812 295.886719 168.40625 296.472656 C 179.085938 297.746094 190.132812 297.261719 201.210938 295 C 203.558594 294.527344 205.960938 293.953125 208.339844 293.3125 C 209.285156 293.054688 210.226562 292.78125 211.171875 292.507812 C 215.882812 291.164062 220.316406 289.875 224.839844 290.0625 C 231.195312 290.320312 237.25 293.496094 243.101562 296.574219 C 244.105469 297.101562 245.105469 297.632812 246.109375 298.148438 C 248.242188 299.234375 250.375 300.253906 252.449219 301.167969 C 260.722656 304.859375 269.238281 307.621094 277.796875 309.382812 C 285.28125 310.945312 292.796875 311.714844 300.167969 311.714844 L 301.125 311.714844 C 310.226562 311.628906 319.117188 310.355469 327.632812 307.921875 C 323.367188 312.804688 318.785156 317.5 313.964844 321.964844 Z M 332.828125 301.753906 C 322.78125 305.417969 312.117188 307.324219 301.097656 307.421875 C 297.359375 307.453125 293.597656 307.265625 289.820312 306.894531 C 313.234375 300.882812 333.570312 290.246094 350.546875 275.164062 C 345.4375 284.539062 339.496094 293.441406 332.8125 301.753906 Z M 356.269531 263.753906 C 356.15625 263.839844 356.027344 263.882812 355.925781 264 C 335.660156 285.339844 309.527344 299.148438 278.226562 305.074219 C 272.429688 303.859375 266.648438 302.15625 260.964844 300.007812 C 273.316406 298.949219 285.210938 296.417969 296.386719 292.410156 C 310.929688 287.214844 324.597656 279.484375 337.019531 269.4375 C 345.636719 262.496094 353.78125 254.339844 361.222656 245.179688 C 362.523438 243.574219 363.839844 241.902344 365.128906 240.199219 C 362.726562 248.253906 359.761719 256.15625 356.269531 263.769531 Z M 356.269531 263.753906 " fill-opacity="1" fill-rule="nonzero"/></g><g fill="#151733" fill-opacity="1"><g transform="translate(131.803552, 208.244005)"><g><path d="M 0.125 -39.171875 L 0.125 -46.140625 L 19.710938 -46.140625 L 19.710938 -39.171875 L 13.308594 -39.171875 L 13.308594 0 L 6.527344 0 L 6.527344 -39.171875 Z M 0.125 -39.171875 "/></g></g></g><g fill="#151733" fill-opacity="1"><g transform="translate(160.744167, 208.244005)"><g><path d="M 14.566406 -20.089844 L 9.292969 -20.089844 L 9.292969 0 L 2.511719 0 L 2.511719 -46.140625 L 9.292969 -46.140625 L 9.292969 -27.058594 L 14.566406 -27.058594 L 14.566406 -46.140625 L 21.34375 -46.140625 L 21.34375 0 L 14.566406 0 Z M 14.566406 -20.089844 "/></g></g></g><g fill="#151733" fill-opacity="1"><g transform="translate(193.702567, 208.244005)"><g><path d="M 2.511719 -46.140625 L 18.015625 -46.140625 L 18.015625 -39.171875 L 9.292969 -39.171875 L 9.292969 -27.058594 L 15.570312 -27.058594 L 15.570312 -19.648438 L 9.292969 -19.648438 L 9.292969 -6.96875 L 18.015625 -6.96875 L 18.015625 0 L 2.511719 0 Z M 2.511719 -46.140625 "/></g></g></g><g fill="#151733" fill-opacity="1"><g transform="translate(222.078184, 208.244005)"><g/></g></g><g fill="#151733" fill-opacity="1"><g transform="translate(240.848785, 208.244005)"><g><path d="M 2.511719 0 L 2.511719 -46.140625 L 7.847656 -46.140625 C 14.125 -46.140625 17.515625 -44.886719 19.335938 -41.371094 C 21.09375 -37.855469 21.34375 -32.078125 21.34375 -23.039062 C 21.34375 -14 21.09375 -8.285156 19.335938 -4.769531 C 17.515625 -1.253906 14.125 0 7.847656 0 Z M 9.292969 -6.78125 C 11.613281 -6.78125 12.933594 -7.03125 13.621094 -9.292969 C 13.9375 -10.359375 14.1875 -11.992188 14.25 -14.1875 C 14.3125 -16.386719 14.3125 -19.335938 14.3125 -23.101562 C 14.3125 -26.867188 14.3125 -29.820312 14.25 -32.015625 C 14.1875 -34.152344 13.9375 -35.785156 13.621094 -36.914062 C 12.933594 -39.109375 11.613281 -39.363281 9.292969 -39.363281 Z M 9.292969 -6.78125 "/></g></g></g><g fill="#151733" fill-opacity="1"><g transform="translate(273.304957, 208.244005)"><g><path d="M 2.511719 -46.140625 L 18.015625 -46.140625 L 18.015625 -39.171875 L 9.292969 -39.171875 L 9.292969 -27.058594 L 15.570312 -27.058594 L 15.570312 -19.648438 L 9.292969 -19.648438 L 9.292969 -6.96875 L 18.015625 -6.96875 L 18.015625 0 L 2.511719 0 Z M 2.511719 -46.140625 "/></g></g></g><g fill="#151733" fill-opacity="1"><g transform="translate(301.680578, 208.244005)"><g><path d="M 2.511719 -46.140625 L 18.015625 -46.140625 L 18.015625 -39.171875 L 9.292969 -39.171875 L 9.292969 -27.058594 L 15.570312 -27.058594 L 15.570312 -19.648438 L 9.292969 -19.648438 L 9.292969 -6.96875 L 18.015625 -6.96875 L 18.015625 0 L 2.511719 0 Z M 2.511719 -46.140625 "/></g></g></g><g fill="#151733" fill-opacity="1"><g transform="translate(330.056199, 208.244005)"><g><path d="M 2.511719 -46.140625 L 9.292969 -46.140625 C 12.242188 -46.140625 15.191406 -45.386719 17.453125 -43.253906 C 19.710938 -41.121094 21.21875 -37.605469 21.21875 -32.332031 C 21.21875 -27.058594 19.710938 -23.605469 17.453125 -21.46875 C 15.191406 -19.335938 12.242188 -18.457031 9.292969 -18.457031 L 9.292969 0 L 2.511719 0 Z M 9.292969 -25.363281 C 11.363281 -25.363281 12.679688 -25.738281 13.433594 -26.804688 C 14.1875 -27.8125 14.375 -29.503906 14.375 -32.078125 C 14.375 -34.652344 14.1875 -36.472656 13.433594 -37.605469 C 12.679688 -38.734375 11.363281 -39.234375 9.292969 -39.234375 Z M 9.292969 -25.363281 "/></g></g></g></svg>